<svg width="100" height="100" viewBox="0 0 100 100" xmlns="http://www.w3.org/2000/svg">
  <!-- Body/Shirt -->
  <ellipse cx="50" cy="75" rx="30" ry="20" fill="#9b59b6"/>
  
  <!-- Head -->
  <circle cx="50" cy="40" r="22" fill="#ecc19c"/>
  
  <!-- Hair - curly/wavy -->
  <path d="M 28,30 Q 25,25 28,20 Q 32,18 35,22 Q 38,18 42,20 Q 45,18 48,22 Q 52,18 55,20 Q 58,18 62,22 Q 65,18 68,20 Q 72,18 72,25 Q 75,30 72,35 L 28,35 Z" fill="#e67e22"/>
  
  <!-- Eyes -->
  <circle cx="42" cy="40" r="3" fill="#2c3e50"/>
  <circle cx="58" cy="40" r="3" fill="#2c3e50"/>
  
  <!-- Smile -->
  <path d="M 40,49 Q 50,53 60,49" fill="none" stroke="#2c3e50" stroke-width="2" stroke-linecap="round"/>
  
  <!-- Nose -->
  <circle cx="50" cy="44" r="1.5" fill="#d4a574"/>
</svg>
